# xmcd
#
# Track frame offsets:
#	150
#	19710
#	36328
#	62676
#	86082
#	106723
#	130067
#	151448
#	171908
#	185258
#	200888
#	217054
#	240408
#	256182
#	280291
#	304846
#	317945
#
# Disc length: 4528
#
# Revision: 1
# Processed by: cddbd v1.5.1PL0 Copyright (c) Steve Scherf et al.
# Submitted via: dBpowerAMP V4.0
# Normalized: r0:TDELIM( - )
#
DISCID=f211ae11
DTITLE=Various Artist - Both Sides Now CD Two
DYEAR=1900
DGENRE=
TTITLE0=Josh Rouse - Feeling No Pain
TTITLE1=Steve Earle - Ballad of John Walker
TTITLE2=Wiskey Biscuit - Santa Ana River Delta Blues
TTITLE3=Mercury Rev - Little Rhymes
TTITLE4=Thea Gilmore - I Dreamed I Saw St Augustine
TTITLE5=Chuck Prophet - Summertime Thing
TTITLE6=Grand Drive - Track 40's Gone
TTITLE7=Grant Lee Philips - Like A Lover
TTITLE8=Departure Lounge - King Kong Frown
TTITLE9=St Thomas - Oh I Have Left The Ground
TTITLE10=Cicero Buck - Delicate Shade of Grey
TTITLE11=Will Kimbrough - Hey Big Sister
TTITLE12=Mary Gauthier - Our Lady Of The Shooting Stars
TTITLE13=Dolly Varden - Overwhelming
TTITLE14=Arlenes - Lobely Won't Leave Me Alone
TTITLE15=Darden Smith - After All This Time
TTITLE16=Hope Sandoval and The Warm Intentions - Suzanne
EXTD=Side 2 of "Both Sides Now" (already on database) My name is Graeme Lynch
EXTT0=
EXTT1=
EXTT2=
EXTT3=
EXTT4=
EXTT5=
EXTT6=
EXTT7=
EXTT8=
EXTT9=
EXTT10=
EXTT11=
EXTT12=
EXTT13=
EXTT14=
EXTT15=
EXTT16=
PLAYORDER=
